<svg width="20" height="21" viewBox="0 0 20 21" fill="none" xmlns="http://www.w3.org/2000/svg">
<path d="M17.3372 10.6322C17.2612 10.5881 17.1778 10.5459 17.0915 10.5047C17.1778 10.4634 17.2612 10.4213 17.3372 10.3772C17.7671 10.1328 18.1444 9.80569 18.4474 9.41484C18.7504 9.02399 18.9731 8.57706 19.1027 8.09978C19.2323 7.62251 19.2662 7.12432 19.2024 6.6339C19.1387 6.14347 18.9786 5.6705 18.7313 5.24221C18.484 4.81392 18.1544 4.43877 17.7616 4.13836C17.3687 3.83796 16.9203 3.61822 16.4422 3.49182C15.9641 3.36541 15.4657 3.33482 14.9757 3.40182C14.4857 3.46882 14.0138 3.63207 13.5872 3.88219C13.5112 3.92625 13.4325 3.97594 13.3547 4.03125C13.3622 3.9375 13.3669 3.84375 13.3669 3.75C13.3669 2.75544 12.9718 1.80161 12.2685 1.09835C11.5652 0.395088 10.6114 0 9.61685 0C8.62229 0 7.66847 0.395088 6.9652 1.09835C6.26194 1.80161 5.86685 2.75544 5.86685 3.75C5.86685 3.83812 5.86685 3.93187 5.87904 4.03125C5.80123 3.97781 5.72248 3.92625 5.64654 3.88219C5.2199 3.63207 4.748 3.46882 4.25801 3.40182C3.76802 3.33482 3.26962 3.36541 2.79149 3.49182C2.31337 3.61822 1.86497 3.83796 1.47212 4.13836C1.07926 4.43877 0.749709 4.81392 0.502429 5.24221C0.255148 5.6705 0.0950263 6.14347 0.0312815 6.6339C-0.0324633 7.12432 0.00142819 7.62251 0.131005 8.09978C0.260581 8.57706 0.483283 9.02399 0.78629 9.41484C1.0893 9.80569 1.46662 10.1328 1.89654 10.3772C1.97248 10.4213 2.05592 10.4634 2.14217 10.5047C2.05592 10.5459 1.97248 10.5881 1.89654 10.6322C1.46662 10.8766 1.0893 11.2037 0.78629 11.5945C0.483283 11.9854 0.260581 12.4323 0.131005 12.9096C0.00142819 13.3869 -0.0324633 13.8851 0.0312815 14.3755C0.0950263 14.8659 0.255148 15.3389 0.502429 15.7672C0.749709 16.1955 1.07926 16.5706 1.47212 16.871C1.86497 17.1714 2.31337 17.3912 2.79149 17.5176C3.26962 17.644 3.76802 17.6746 4.25801 17.6076C4.748 17.5406 5.2199 17.3773 5.64654 17.1272C5.72248 17.0831 5.80123 17.0334 5.87904 16.9781C5.87154 17.0719 5.86685 17.1656 5.86685 17.2547C5.86685 18.2493 6.26194 19.2031 6.9652 19.9063C7.66847 20.6096 8.62229 21.0047 9.61685 21.0047C10.6114 21.0047 11.5652 20.6096 12.2685 19.9063C12.9718 19.2031 13.3669 18.2493 13.3669 17.2547C13.3669 17.1666 13.3622 17.0728 13.3547 16.9781C13.4325 17.0316 13.5112 17.0831 13.5872 17.1272C14.1552 17.4563 14.8001 17.6296 15.4565 17.6297C15.7864 17.6293 16.1148 17.5858 16.4334 17.5003C17.1498 17.3083 17.7932 16.9081 18.2822 16.3505C18.7712 15.7928 19.0838 15.1026 19.1806 14.3673C19.2773 13.6319 19.1538 12.8844 18.8257 12.2192C18.4976 11.554 17.9795 11.0011 17.3372 10.6303V10.6322ZM7.36685 10.5047C7.36685 10.0597 7.49881 9.62467 7.74605 9.25465C7.99328 8.88464 8.34468 8.59626 8.75582 8.42596C9.16695 8.25566 9.61935 8.2111 10.0558 8.29792C10.4923 8.38474 10.8932 8.59903 11.2078 8.9137C11.5225 9.22836 11.7368 9.62928 11.8236 10.0657C11.9104 10.5022 11.8659 10.9546 11.6956 11.3657C11.5253 11.7769 11.2369 12.1283 10.8669 12.3755C10.4969 12.6227 10.0619 12.7547 9.61685 12.7547C9.02012 12.7547 8.44782 12.5176 8.02586 12.0957C7.60391 11.6737 7.36685 11.1014 7.36685 10.5047ZM14.3372 5.18062C14.5931 5.03289 14.8755 4.937 15.1685 4.89843C15.4614 4.85987 15.7591 4.87938 16.0445 4.95586C16.3299 5.03234 16.5975 5.16428 16.8319 5.34416C17.0663 5.52404 17.263 5.74833 17.4108 6.00422C17.5585 6.26011 17.6544 6.5426 17.693 6.83555C17.7315 7.1285 17.712 7.42618 17.6355 7.71159C17.559 7.997 17.4271 8.26455 17.2472 8.49897C17.0673 8.73338 16.8431 8.93008 16.5872 9.07781C15.9994 9.41813 14.8425 9.6525 13.2909 9.75187C13.1272 8.95814 12.7108 8.23879 12.104 7.70156C12.9665 6.40594 13.7494 5.52094 14.3372 5.18062ZM9.61685 1.50469C10.2136 1.50469 10.7859 1.74174 11.2078 2.1637C11.6298 2.58565 11.8669 3.15795 11.8669 3.75469C11.8669 4.43344 11.4919 5.55375 10.8019 6.94781C10.0328 6.69032 9.20087 6.69032 8.43185 6.94781C7.74185 5.55375 7.36685 4.43344 7.36685 3.75469C7.36685 3.15795 7.60391 2.58565 8.02586 2.1637C8.44782 1.74174 9.02012 1.50469 9.61685 1.50469ZM1.82248 6.00469C1.97018 5.74869 2.16686 5.5243 2.40129 5.34433C2.63573 5.16436 2.90333 5.03235 3.1888 4.95582C3.47426 4.8793 3.77201 4.85976 4.06503 4.89833C4.35805 4.93691 4.6406 5.03283 4.89654 5.18062C5.48435 5.52094 6.26717 6.40594 7.12967 7.70156C6.52236 8.23953 6.1059 8.95994 5.94279 9.75469C4.39123 9.65531 3.23435 9.42094 2.64654 9.08156C2.39017 8.93387 2.16545 8.73706 1.98524 8.5024C1.80503 8.26774 1.67287 7.99985 1.59632 7.71405C1.51978 7.42825 1.50036 7.13016 1.53916 6.83684C1.57797 6.54353 1.67425 6.26075 1.82248 6.00469ZM4.89654 15.8287C4.37974 16.1271 3.76558 16.208 3.18917 16.0535C2.61276 15.8991 2.12132 15.522 1.82295 15.0052C1.52458 14.4884 1.44373 13.8742 1.59818 13.2978C1.75264 12.7214 2.12974 12.2299 2.64654 11.9316C3.23435 11.5913 4.39123 11.3569 5.94279 11.2575C6.10647 12.0512 6.52288 12.7706 7.12967 13.3078C6.26717 14.6034 5.48435 15.4884 4.89654 15.8287ZM9.61685 19.5047C9.02012 19.5047 8.44782 19.2676 8.02586 18.8457C7.60391 18.4237 7.36685 17.8514 7.36685 17.2547C7.36685 16.5759 7.74185 15.4556 8.43185 14.0616C9.20087 14.3191 10.0328 14.3191 10.8019 14.0616C11.4919 15.4556 11.8669 16.5759 11.8669 17.2547C11.8669 17.8514 11.6298 18.4237 11.2078 18.8457C10.7859 19.2676 10.2136 19.5047 9.61685 19.5047ZM17.4112 15.0047C17.2635 15.2607 17.0669 15.4851 16.8324 15.665C16.598 15.845 16.3304 15.977 16.0449 16.0536C15.7594 16.1301 15.4617 16.1496 15.1687 16.111C14.8757 16.0725 14.5931 15.9765 14.3372 15.8287C13.7494 15.4884 12.9665 14.6034 12.104 13.3078C12.7113 12.7698 13.1278 12.0494 13.2909 11.2547C14.8425 11.3541 15.9994 11.5884 16.5872 11.9278C16.8435 12.0755 17.0683 12.2723 17.2485 12.507C17.4287 12.7416 17.5608 13.0095 17.6374 13.2953C17.7139 13.5811 17.7334 13.8792 17.6945 14.1725C17.6557 14.4658 17.5595 14.7486 17.4112 15.0047Z" fill="#FFC400"/>
</svg>
