<svg width="19" height="15" viewBox="0 0 19 15" fill="none" xmlns="http://www.w3.org/2000/svg">
<path d="M17.9945 8.52039C17.7902 8.36288 17.5559 8.24861 17.3059 8.18454C17.0559 8.12048 16.7956 8.10795 16.5406 8.14773C18.0078 6.66648 18.75 5.19382 18.75 3.75007C18.75 1.6821 17.0867 7.33038e-05 15.0422 7.33038e-05C14.4997 -0.00333348 13.963 0.112046 13.4699 0.338111C12.9767 0.564176 12.539 0.895447 12.1875 1.30867C11.836 0.895447 11.3983 0.564176 10.9051 0.338111C10.412 0.112046 9.87531 -0.00333348 9.33281 7.33038e-05C7.28828 7.33038e-05 5.625 1.6821 5.625 3.75007C5.625 4.60945 5.87812 5.4446 6.41094 6.3282C5.97456 6.43875 5.57632 6.66555 5.25859 6.98445L3.49141 8.75007H1.25C0.918479 8.75007 0.600537 8.88177 0.366117 9.11619C0.131696 9.35061 0 9.66855 0 10.0001L0 13.1251C0 13.4566 0.131696 13.7745 0.366117 14.009C0.600537 14.2434 0.918479 14.3751 1.25 14.3751H9.375C9.4261 14.3751 9.47701 14.3688 9.52656 14.3563L14.5266 13.1063C14.5584 13.0987 14.5895 13.0883 14.6195 13.0751L17.6562 11.7829L17.6906 11.7673C17.9825 11.6214 18.2324 11.4037 18.4168 11.1346C18.6013 10.8655 18.7142 10.5538 18.7449 10.229C18.7756 9.90419 18.7231 9.57691 18.5924 9.27799C18.4617 8.97906 18.257 8.71834 17.9977 8.52039H17.9945ZM9.33281 1.25007C9.81688 1.24299 10.2921 1.38044 10.6976 1.64486C11.1031 1.90928 11.4206 2.28865 11.6094 2.73445C11.6565 2.84908 11.7366 2.94713 11.8395 3.01613C11.9424 3.08513 12.0636 3.12197 12.1875 3.12197C12.3114 3.12197 12.4326 3.08513 12.5355 3.01613C12.6384 2.94713 12.7185 2.84908 12.7656 2.73445C12.9544 2.28865 13.2719 1.90928 13.6774 1.64486C14.0829 1.38044 14.5581 1.24299 15.0422 1.25007C16.3742 1.25007 17.5 2.3946 17.5 3.75007C17.5 5.27429 16.2664 6.99851 13.9328 8.74226L13.0664 8.94148C13.1425 8.62022 13.1448 8.28592 13.0733 7.96363C13.0017 7.64134 12.8582 7.33941 12.6534 7.08049C12.4486 6.82156 12.1878 6.61235 11.8907 6.46854C11.5935 6.32473 11.2676 6.25004 10.9375 6.25007H7.86563C7.19141 5.3407 6.875 4.5407 6.875 3.75007C6.875 2.3946 8.00078 1.25007 9.33281 1.25007ZM1.25 10.0001H3.125V13.1251H1.25V10.0001ZM17.143 10.6415L14.1742 11.9055L9.29688 13.1251H4.375V9.63367L6.14297 7.86648C6.25862 7.7499 6.39629 7.65747 6.54798 7.59457C6.69967 7.53167 6.86235 7.49955 7.02656 7.50007H10.9375C11.1861 7.50007 11.4246 7.59885 11.6004 7.77466C11.7762 7.95048 11.875 8.18893 11.875 8.43757C11.875 8.68621 11.7762 8.92467 11.6004 9.10049C11.4246 9.2763 11.1861 9.37507 10.9375 9.37507H8.75C8.58424 9.37507 8.42527 9.44092 8.30806 9.55813C8.19085 9.67534 8.125 9.83431 8.125 10.0001C8.125 10.1658 8.19085 10.3248 8.30806 10.442C8.42527 10.5592 8.58424 10.6251 8.75 10.6251H11.25C11.297 10.6249 11.3439 10.6197 11.3898 10.6094L16.6242 9.40554L16.6484 9.39929C16.8082 9.35493 16.9788 9.37123 17.1273 9.44506C17.2758 9.51888 17.3917 9.64502 17.4528 9.79919C17.5139 9.95336 17.5158 10.1247 17.4582 10.2802C17.4005 10.4357 17.2874 10.5644 17.1406 10.6415H17.143Z" fill="#473917"/>
</svg>
