<svg width="15" height="20" viewBox="0 0 15 20" fill="none" xmlns="http://www.w3.org/2000/svg">
<path d="M10.5 3H1.5C1.10218 3 0.720644 3.15804 0.43934 3.43934C0.158035 3.72064 2.33749e-10 4.10218 2.33748e-10 4.5V18.75C-3.43969e-06 18.8878 0.0379607 19.0229 0.109725 19.1406C0.181489 19.2582 0.284279 19.3538 0.40681 19.4169C0.529342 19.4799 0.666878 19.508 0.804322 19.498C0.941765 19.4881 1.0738 19.4404 1.18594 19.3603L6 15.9216L10.815 19.3603C10.9271 19.4401 11.0591 19.4876 11.1964 19.4974C11.3337 19.5073 11.471 19.4791 11.5934 19.4161C11.7158 19.3531 11.8184 19.2576 11.8902 19.1401C11.9619 19.0226 11.9999 18.8877 12 18.75V4.5C12 4.10218 11.842 3.72064 11.5607 3.43934C11.2794 3.15804 10.8978 3 10.5 3ZM10.5 17.2931L6.435 14.3869C6.3078 14.296 6.15538 14.2472 5.99906 14.2472C5.84274 14.2472 5.69033 14.296 5.56312 14.3869L1.5 17.2922V4.5H10.5V17.2931ZM15 1.5V15.75C15 15.9489 14.921 16.1397 14.7803 16.2803C14.6397 16.421 14.4489 16.5 14.25 16.5C14.0511 16.5 13.8603 16.421 13.7197 16.2803C13.579 16.1397 13.5 15.9489 13.5 15.75V1.5H3.75C3.55109 1.5 3.36032 1.42098 3.21967 1.28033C3.07902 1.13968 3 0.948912 3 0.75C3 0.551088 3.07902 0.360322 3.21967 0.21967C3.36032 0.0790176 3.55109 0 3.75 0H13.5C13.8978 0 14.2794 0.158035 14.5607 0.43934C14.842 0.720644 15 1.10218 15 1.5Z" fill="#FFC400"/>
</svg>
